<svg width="34" height="640" viewBox="0 0 34 640" fill="none" xmlns="http://www.w3.org/2000/svg">
<path d="M33.031 641.563L-1.3922 607.205L-39.257 645L-41.415 645L-1.39219 605.053L33.031 639.411L33.031 641.563Z" fill="url(#paint0_linear_35_4179)"/>
<path d="M23.9365 645L21.7785 645L-1.39212 621.875L-24.5612 645L-26.7192 645L-1.39212 619.72L23.9365 645Z" fill="url(#paint1_linear_35_4179)"/>
<path d="M8.896 645L6.73644 645L-1.39205 636.887L-9.52053 645L-11.6786 645L-1.39205 634.733L8.896 645Z" fill="url(#paint2_linear_35_4179)"/>
<path d="M33.031 626.912L14.9075 645L12.7495 645L33.031 624.757L33.031 626.912Z" fill="url(#paint3_linear_35_4179)"/>
<path d="M33.031 587.67L-1.39219 553.313L-54.3876 606.213L-15.5262 645L-17.6843 645L-56.5456 606.213L-1.39219 551.161L33.031 585.514L33.031 587.67Z" fill="url(#paint4_linear_35_4179)"/>
<path d="M33.031 602.335L-1.3922 567.978L-39.695 606.213L-1.38914 644.449L33.031 610.091L33.031 612.246L0.214878 645L-2.99317 645L-41.853 606.213L-1.3922 565.823L33.031 600.18L33.031 602.335Z" fill="url(#paint5_linear_35_4179)"/>
<path d="M-26.8094 606.213L-1.38921 631.586L24.031 606.213L-1.3892 580.84L-26.8094 606.213ZM-1.38921 629.431L-24.6514 606.213L-1.3892 582.995L21.873 606.213L-1.38921 629.431Z" fill="url(#paint6_linear_35_4179)"/>
<path d="M-12.1853 606.216L-1.38904 616.99L9.40723 606.213L-1.38904 595.437L-12.1853 606.216ZM-1.38904 614.833L-10.0273 606.215L-1.38904 597.589L7.2492 606.212L-1.38904 614.833Z" fill="url(#paint7_linear_35_4179)"/>
<path d="M33.031 533.612L-1.39219 499.258L-54.3906 552.153L-1.3922 605.053L33.031 570.696L33.031 572.852L-1.3922 607.205L-56.5487 552.153L-1.39219 497.103L33.031 531.461L33.031 533.612Z" fill="url(#paint8_linear_35_4179)"/>
<path d="M33.031 548.278L-1.39219 513.92L-39.698 552.153L-1.38914 590.391L33.031 556.034L33.031 558.189L-1.38914 592.543L-41.8561 552.153L-1.39219 511.768L33.031 546.123L33.031 548.278Z" fill="url(#paint9_linear_35_4179)"/>
<path d="M-26.8124 552.156L-1.3922 577.529L24.0295 552.156L-1.39067 526.783L-26.8124 552.156ZM-1.3922 575.374L-24.6544 552.156L-1.3922 528.938L21.87 552.156L-1.3922 575.374Z" fill="url(#paint10_linear_35_4179)"/>
<path d="M-12.1854 552.156L-1.39221 562.932L9.40405 552.156L-1.38916 541.379L-12.1854 552.156ZM-1.39221 560.779L-10.0274 552.156L-1.38916 543.536L7.24602 552.156L-1.39221 560.779Z" fill="url(#paint11_linear_35_4179)"/>
<path d="M33.031 479.633L-1.38914 445.278L-54.3876 498.176L-1.38914 551.077L33.031 516.725L33.031 518.877L-1.38914 553.229L-56.5456 498.176L-1.38914 443.123L33.031 477.476L33.031 479.633Z" fill="url(#paint12_linear_35_4179)"/>
<path d="M33.031 494.298L-1.38914 459.946L-39.695 498.176L-1.38914 536.412L33.031 502.06L33.031 504.212L-1.38914 538.567L-41.853 498.176L-1.38914 457.791L33.031 492.146L33.031 494.298Z" fill="url(#paint13_linear_35_4179)"/>
<path d="M-26.8094 498.176L-1.38921 523.549L24.031 498.179L-1.3892 472.803L-26.8094 498.176ZM-1.38921 521.397L-24.6514 498.176L-1.3892 474.958L21.873 498.179L-1.38921 521.397Z" fill="url(#paint14_linear_35_4179)"/>
<path d="M-12.1853 498.179L-1.38904 508.952L9.40723 498.176L-1.38904 487.403L-12.1853 498.179ZM-1.38904 506.799L-10.0273 498.179L-1.38904 489.559L7.2492 498.176L-1.38904 506.799Z" fill="url(#paint15_linear_35_4179)"/>
<path d="M33.031 425.661L-1.39219 391.304L-54.3906 444.202L-1.3922 497.103L33.031 462.745L33.031 464.9L-1.3922 499.258L-56.5487 444.202L-1.39219 389.148L33.031 423.506L33.031 425.661Z" fill="url(#paint16_linear_35_4179)"/>
<path d="M33.031 440.324L-1.39219 405.97L-39.698 444.202L-1.38914 482.436L33.031 448.083L33.031 450.238L-1.38914 484.593L-41.8561 444.202L-1.39219 403.815L33.031 438.172L33.031 440.324Z" fill="url(#paint17_linear_35_4179)"/>
<path d="M-26.8124 444.202L-1.3922 469.575L24.0295 444.202L-1.39067 418.832L-26.8124 444.202ZM-1.3922 467.423L-24.6544 444.202L-1.3922 420.984L21.87 444.202L-1.3922 467.423Z" fill="url(#paint18_linear_35_4179)"/>
<path d="M-12.1854 444.205L-1.39221 454.982L9.40405 444.202L-1.38916 433.429L-12.1854 444.205ZM-1.39221 452.825L-10.0274 444.205L-1.38916 435.585L7.24602 444.202L-1.39221 452.825Z" fill="url(#paint19_linear_35_4179)"/>
<path d="M33.031 371.597L-1.38914 337.244L-54.3876 390.145L-1.38914 443.042L33.031 408.688L33.031 410.843L-1.38914 445.197L-56.5456 390.145L-1.38914 335.09L33.031 369.442L33.031 371.597Z" fill="url(#paint20_linear_35_4179)"/>
<path d="M33.031 386.263L-1.38914 351.909L-39.695 390.145L-1.3861 428.379L33.031 394.026L33.031 396.181L-1.3861 430.532L-41.853 390.145L-1.38914 349.754L33.031 384.108L33.031 386.263Z" fill="url(#paint21_linear_35_4179)"/>
<path d="M-26.8094 390.145L-1.38921 415.517L24.031 390.145L-1.3892 364.772L-26.8094 390.145ZM-1.38921 413.363L-24.6514 390.145L-1.3892 366.924L21.873 390.145L-1.38921 413.363Z" fill="url(#paint22_linear_35_4179)"/>
<path d="M-12.1822 390.148L-1.38904 400.921L9.40723 390.145L-1.38599 379.368L-12.1822 390.148ZM-1.38904 398.765L-10.0242 390.148L-1.38599 381.522L7.2492 390.145L-1.38904 398.765Z" fill="url(#paint23_linear_35_4179)"/>
<path d="M33.031 317.71L-1.39219 283.349L-54.3906 336.25L-1.3922 389.148L33.031 354.795L33.031 356.95L-1.3922 391.304L-56.5487 336.25L-1.39219 281.198L33.031 315.555L33.031 317.71Z" fill="url(#paint24_linear_35_4179)"/>
<path d="M33.031 332.375L-1.39219 298.018L-39.698 336.25L-1.38914 374.486L33.031 340.131L33.031 342.286L-1.38914 376.638L-41.8561 336.25L-1.39219 295.863L33.031 330.22L33.031 332.375Z" fill="url(#paint25_linear_35_4179)"/>
<path d="M-26.8126 336.25L-1.39238 361.623L24.0278 336.253L-1.39238 310.877L-26.8126 336.25ZM-1.39238 359.468L-24.6546 336.25L-1.39238 313.032L21.8698 336.253L-1.39238 359.468Z" fill="url(#paint26_linear_35_4179)"/>
<path d="M-12.1854 336.253L-1.39221 347.027L9.40405 336.25L-1.38916 325.477L-12.1854 336.253ZM-1.39221 344.872L-10.0274 336.255L-1.38916 327.632L7.24602 336.252L-1.39221 344.872Z" fill="url(#paint27_linear_35_4179)"/>
<path d="M33.031 263.562L-1.38914 229.208L-54.3845 282.107L-1.38609 335.008L33.031 300.656L33.031 302.811L-1.38609 337.16L-56.5426 282.107L-1.38914 227.053L33.031 261.407L33.031 263.562Z" fill="url(#paint28_linear_35_4179)"/>
<path d="M33.031 278.229L-1.38914 243.875L-39.6919 282.107L-1.38609 320.341L33.031 285.991L33.031 288.146L-1.38609 322.498L-41.85 282.107L-1.38914 241.723L33.031 276.077L33.031 278.229Z" fill="url(#paint29_linear_35_4179)"/>
<path d="M-26.8094 282.107L-1.38615 307.48L24.031 282.11L-1.3892 256.734L-26.8094 282.107ZM-1.38615 305.325L-24.6514 282.107L-1.3892 258.889L21.873 282.11L-1.38615 305.325Z" fill="url(#paint30_linear_35_4179)"/>
<path d="M-12.1822 282.11L-1.38904 292.884L9.40723 282.107L-1.38599 271.334L-12.1822 282.11ZM-1.38904 290.73L-10.0242 282.11L-1.38599 273.49L7.2492 282.107L-1.38904 290.73Z" fill="url(#paint31_linear_35_4179)"/>
<path d="M33.031 209.758L-1.39219 175.402L-54.3906 228.3L-1.3922 281.198L33.031 246.843L33.031 248.995L-1.3922 283.349L-56.5487 228.3L-1.39219 173.246L33.031 207.603L33.031 209.758Z" fill="url(#paint32_linear_35_4179)"/>
<path d="M33.031 224.422L-1.39219 190.067L-39.698 228.3L-1.38914 266.535L33.031 232.178L33.031 234.333L-1.38914 268.69L-41.8561 228.3L-1.39219 187.912L33.031 222.27L33.031 224.422Z" fill="url(#paint33_linear_35_4179)"/>
<path d="M-26.8126 228.3L-1.39238 253.673L24.0278 228.3L-1.39238 202.927L-26.8126 228.3ZM-1.39238 251.521L-24.6546 228.3L-1.39238 205.082L21.8698 228.3L-1.39238 251.521Z" fill="url(#paint34_linear_35_4179)"/>
<path d="M-12.1854 228.3L-1.39221 239.076L9.40405 228.3L-1.38916 217.523L-12.1854 228.3ZM-1.39221 236.923L-10.0274 228.3L-1.38916 219.68L7.24602 228.3L-1.39221 236.923Z" fill="url(#paint35_linear_35_4179)"/>
<path d="M33.031 155.528L-1.38914 121.174L-54.3845 174.074L-1.38609 226.974L33.031 192.622L33.031 194.777L-1.38609 229.129L-56.5426 174.074L-1.38914 119.022L33.031 153.373L33.031 155.528Z" fill="url(#paint36_linear_35_4179)"/>
<path d="M33.031 170.193L-1.38914 135.84L-39.6919 174.074L-1.38609 212.307L33.031 177.955L33.031 180.112L-1.38609 214.462L-41.85 174.074L-1.38914 133.685L33.031 168.038L33.031 170.193Z" fill="url(#paint37_linear_35_4179)"/>
<path d="M-26.8062 174.074L-1.38603 199.447L24.0342 174.074L-1.38603 148.701L-26.8062 174.074ZM-1.38603 197.292L-24.6482 174.074L-1.38603 150.853L21.8761 174.074L-1.38603 197.292Z" fill="url(#paint38_linear_35_4179)"/>
<path d="M-12.1824 174.077L-1.38611 184.851L9.41016 174.074L-1.38611 163.295L-12.1824 174.077ZM-1.38611 182.696L-10.0243 174.079L-1.38611 165.453L7.25212 174.076L-1.38611 182.696Z" fill="url(#paint39_linear_35_4179)"/>
<path d="M33.031 101.805L-1.39219 67.4471L-54.3906 120.348L-1.3922 173.246L33.031 138.89L33.031 141.045L-1.3922 175.402L-56.5487 120.348L-1.39219 65.2952L33.031 99.6497L33.031 101.805Z" fill="url(#paint40_linear_35_4179)"/>
<path d="M33.031 116.47L-1.39219 82.1138L-39.698 120.348L-1.38914 158.58L33.031 124.226L33.031 126.381L-1.38914 160.735L-41.8561 120.348L-1.39219 79.9573L33.031 114.315L33.031 116.47Z" fill="url(#paint41_linear_35_4179)"/>
<path d="M-26.8126 120.348L-1.39238 145.721L24.0278 120.348L-1.39238 94.975L-26.8126 120.348ZM-1.39238 143.566L-24.6546 120.348L-1.39238 97.1269L21.8698 120.348L-1.39238 143.566Z" fill="url(#paint42_linear_35_4179)"/>
<path d="M-12.1854 120.351L-1.39221 131.124L9.40405 120.348L-1.38916 109.575L-12.1854 120.351ZM-1.39221 128.969L-10.0274 120.352L-1.38916 111.729L7.24602 120.349L-1.39221 128.969Z" fill="url(#paint43_linear_35_4179)"/>
<path d="M33.031 47.4906L-1.38609 13.1391L-54.3845 66.0369L-1.38609 118.939L33.031 84.5877L33.031 86.7427L-1.38609 121.091L-56.5426 66.0369L-1.38609 10.9842L33.031 45.3356L33.031 47.4906Z" fill="url(#paint44_linear_35_4179)"/>
<path d="M33.031 62.1558L-1.38609 27.8059L-39.6919 66.0369L-1.38609 104.273L33.031 69.9241L33.031 72.076L-1.38609 106.427L-41.85 66.0369L-1.38609 25.6524L33.031 60.0008L33.031 62.1558Z" fill="url(#paint45_linear_35_4179)"/>
<path d="M-26.8062 66.0369L-1.38603 91.4098L24.0342 66.04L-1.38603 40.664L-26.8062 66.0369ZM-1.38603 89.2548L-24.6482 66.0369L-1.38603 42.819L21.8761 66.04L-1.38603 89.2548Z" fill="url(#paint46_linear_35_4179)"/>
<path d="M-12.1824 66.04L-1.38611 76.8133L9.41016 66.0369L-1.38611 55.2635L-12.1824 66.04ZM-1.38611 74.6614L-10.0243 66.0415L-1.38611 57.4216L7.25212 66.0384L-1.38611 74.6614Z" fill="url(#paint47_linear_35_4179)"/>
<path d="M-1.3922 65.2952L33.031 30.9376L33.031 33.0926L-1.3922 67.4471L-56.5487 12.3944L-40.194 -3.93126L-38.0345 -3.93126L-54.3906 12.3944L-1.3922 65.2952Z" fill="url(#paint48_linear_35_4179)"/>
<path d="M-1.38914 50.63L33.031 16.2725L33.031 18.4274L-1.38914 52.785L-41.8561 12.3944L-25.5014 -3.93125L-23.3434 -3.93125L-39.698 12.3944L-1.38914 50.63Z" fill="url(#paint49_linear_35_4179)"/>
<path d="M33.031 8.51636L20.559 -3.93125L22.717 -3.93125L33.031 6.3614L33.031 8.51636Z" fill="url(#paint50_linear_35_4179)"/>
<path d="M-8.2982 -3.93126L-24.6544 12.3944L-1.3922 35.6123L21.87 12.3944L5.51534 -3.93126L7.67337 -3.93126L24.0295 12.3944L-1.3922 37.7673L-26.8124 12.3944L-10.4562 -3.93126L-8.2982 -3.93126Z" fill="url(#paint51_linear_35_4179)"/>
<path d="M-12.1854 12.3944L-1.39221 23.1708L9.40405 12.3944L-1.38916 1.61948L-12.1854 12.3944ZM-1.39221 21.0174L-10.0274 12.3944L-1.38916 3.77449L7.24602 12.3944L-1.39221 21.0174Z" fill="url(#paint52_linear_35_4179)"/>
<defs>
<linearGradient id="paint0_linear_35_4179" x1="-4.1923" y1="715.155" x2="-4.19229" y2="605.054" gradientUnits="userSpaceOnUse">
<stop stop-color="#C17019"/>
<stop offset="0.5073" stop-color="#FFF89F"/>
<stop offset="0.9854" stop-color="#964A06"/>
</linearGradient>
<linearGradient id="paint1_linear_35_4179" x1="-1.39166" y1="700.494" x2="-1.39166" y2="619.719" gradientUnits="userSpaceOnUse">
<stop stop-color="#C17019"/>
<stop offset="0.5073" stop-color="#FFF89F"/>
<stop offset="0.9854" stop-color="#964A06"/>
</linearGradient>
<linearGradient id="paint2_linear_35_4179" x1="-1.39159" y1="685.472" x2="-1.39159" y2="634.734" gradientUnits="userSpaceOnUse">
<stop stop-color="#C17019"/>
<stop offset="0.5073" stop-color="#FFF89F"/>
<stop offset="0.9854" stop-color="#964A06"/>
</linearGradient>
<linearGradient id="paint3_linear_35_4179" x1="22.8902" y1="661.265" x2="22.8902" y2="551.161" gradientUnits="userSpaceOnUse">
<stop stop-color="#C17019"/>
<stop offset="0.5073" stop-color="#FFF89F"/>
<stop offset="0.9854" stop-color="#964A06"/>
</linearGradient>
<linearGradient id="paint4_linear_35_4179" x1="-11.7576" y1="661.265" x2="-11.7576" y2="551.16" gradientUnits="userSpaceOnUse">
<stop stop-color="#C17019"/>
<stop offset="0.5073" stop-color="#FFF89F"/>
<stop offset="0.9854" stop-color="#964A06"/>
</linearGradient>
<linearGradient id="paint5_linear_35_4179" x1="-4.41131" y1="646.601" x2="-4.41131" y2="565.823" gradientUnits="userSpaceOnUse">
<stop stop-color="#C17019"/>
<stop offset="0.5073" stop-color="#FFF89F"/>
<stop offset="0.9854" stop-color="#964A06"/>
</linearGradient>
<linearGradient id="paint6_linear_35_4179" x1="-1.38875" y1="631.586" x2="-1.38875" y2="580.84" gradientUnits="userSpaceOnUse">
<stop stop-color="#C17019"/>
<stop offset="0.5073" stop-color="#FFF89F"/>
<stop offset="0.9854" stop-color="#964A06"/>
</linearGradient>
<linearGradient id="paint7_linear_35_4179" x1="-1.38858" y1="616.989" x2="-1.38858" y2="595.438" gradientUnits="userSpaceOnUse">
<stop stop-color="#C17019"/>
<stop offset="0.5073" stop-color="#FFF89F"/>
<stop offset="0.9854" stop-color="#964A06"/>
</linearGradient>
<linearGradient id="paint8_linear_35_4179" x1="-11.7591" y1="607.206" x2="-11.7591" y2="497.103" gradientUnits="userSpaceOnUse">
<stop stop-color="#C17019"/>
<stop offset="0.5073" stop-color="#FFF89F"/>
<stop offset="0.9854" stop-color="#964A06"/>
</linearGradient>
<linearGradient id="paint9_linear_35_4179" x1="-4.41283" y1="592.543" x2="-4.41283" y2="511.768" gradientUnits="userSpaceOnUse">
<stop stop-color="#C17019"/>
<stop offset="0.5073" stop-color="#FFF89F"/>
<stop offset="0.9854" stop-color="#964A06"/>
</linearGradient>
<linearGradient id="paint10_linear_35_4179" x1="-1.39189" y1="577.529" x2="-1.39189" y2="526.783" gradientUnits="userSpaceOnUse">
<stop stop-color="#C17019"/>
<stop offset="0.5073" stop-color="#FFF89F"/>
<stop offset="0.9854" stop-color="#964A06"/>
</linearGradient>
<linearGradient id="paint11_linear_35_4179" x1="-1.39023" y1="562.931" x2="-1.39023" y2="541.38" gradientUnits="userSpaceOnUse">
<stop stop-color="#C17019"/>
<stop offset="0.5073" stop-color="#FFF89F"/>
<stop offset="0.9854" stop-color="#964A06"/>
</linearGradient>
<linearGradient id="paint12_linear_35_4179" x1="-11.7576" y1="553.229" x2="-11.7576" y2="443.123" gradientUnits="userSpaceOnUse">
<stop stop-color="#C17019"/>
<stop offset="0.5073" stop-color="#FFF89F"/>
<stop offset="0.9854" stop-color="#964A06"/>
</linearGradient>
<linearGradient id="paint13_linear_35_4179" x1="-4.41131" y1="538.566" x2="-4.4113" y2="457.791" gradientUnits="userSpaceOnUse">
<stop stop-color="#C17019"/>
<stop offset="0.5073" stop-color="#FFF89F"/>
<stop offset="0.9854" stop-color="#964A06"/>
</linearGradient>
<linearGradient id="paint14_linear_35_4179" x1="-1.38875" y1="523.549" x2="-1.38875" y2="472.803" gradientUnits="userSpaceOnUse">
<stop stop-color="#C17019"/>
<stop offset="0.5073" stop-color="#FFF89F"/>
<stop offset="0.9854" stop-color="#964A06"/>
</linearGradient>
<linearGradient id="paint15_linear_35_4179" x1="-1.38858" y1="508.951" x2="-1.38858" y2="487.403" gradientUnits="userSpaceOnUse">
<stop stop-color="#C17019"/>
<stop offset="0.5073" stop-color="#FFF89F"/>
<stop offset="0.9854" stop-color="#964A06"/>
</linearGradient>
<linearGradient id="paint16_linear_35_4179" x1="-11.7591" y1="499.258" x2="-11.7591" y2="389.149" gradientUnits="userSpaceOnUse">
<stop stop-color="#C17019"/>
<stop offset="0.5073" stop-color="#FFF89F"/>
<stop offset="0.9854" stop-color="#964A06"/>
</linearGradient>
<linearGradient id="paint17_linear_35_4179" x1="-4.41283" y1="484.592" x2="-4.41283" y2="403.814" gradientUnits="userSpaceOnUse">
<stop stop-color="#C17019"/>
<stop offset="0.5073" stop-color="#FFF89F"/>
<stop offset="0.9854" stop-color="#964A06"/>
</linearGradient>
<linearGradient id="paint18_linear_35_4179" x1="-1.39189" y1="469.574" x2="-1.39189" y2="418.832" gradientUnits="userSpaceOnUse">
<stop stop-color="#C17019"/>
<stop offset="0.5073" stop-color="#FFF89F"/>
<stop offset="0.9854" stop-color="#964A06"/>
</linearGradient>
<linearGradient id="paint19_linear_35_4179" x1="-1.39023" y1="454.98" x2="-1.39023" y2="433.429" gradientUnits="userSpaceOnUse">
<stop stop-color="#C17019"/>
<stop offset="0.5073" stop-color="#FFF89F"/>
<stop offset="0.9854" stop-color="#964A06"/>
</linearGradient>
<linearGradient id="paint20_linear_35_4179" x1="-11.7576" y1="445.197" x2="-11.7576" y2="335.091" gradientUnits="userSpaceOnUse">
<stop stop-color="#C17019"/>
<stop offset="0.5073" stop-color="#FFF89F"/>
<stop offset="0.9854" stop-color="#964A06"/>
</linearGradient>
<linearGradient id="paint21_linear_35_4179" x1="-4.41131" y1="430.532" x2="-4.41131" y2="349.754" gradientUnits="userSpaceOnUse">
<stop stop-color="#C17019"/>
<stop offset="0.5073" stop-color="#FFF89F"/>
<stop offset="0.9854" stop-color="#964A06"/>
</linearGradient>
<linearGradient id="paint22_linear_35_4179" x1="-1.38875" y1="415.517" x2="-1.38875" y2="364.771" gradientUnits="userSpaceOnUse">
<stop stop-color="#C17019"/>
<stop offset="0.5073" stop-color="#FFF89F"/>
<stop offset="0.9854" stop-color="#964A06"/>
</linearGradient>
<linearGradient id="paint23_linear_35_4179" x1="-1.38721" y1="400.92" x2="-1.3872" y2="379.368" gradientUnits="userSpaceOnUse">
<stop stop-color="#C17019"/>
<stop offset="0.5073" stop-color="#FFF89F"/>
<stop offset="0.9854" stop-color="#964A06"/>
</linearGradient>
<linearGradient id="paint24_linear_35_4179" x1="-11.7591" y1="391.304" x2="-11.7591" y2="281.198" gradientUnits="userSpaceOnUse">
<stop stop-color="#C17019"/>
<stop offset="0.5073" stop-color="#FFF89F"/>
<stop offset="0.9854" stop-color="#964A06"/>
</linearGradient>
<linearGradient id="paint25_linear_35_4179" x1="-4.41283" y1="376.638" x2="-4.41283" y2="295.863" gradientUnits="userSpaceOnUse">
<stop stop-color="#C17019"/>
<stop offset="0.5073" stop-color="#FFF89F"/>
<stop offset="0.9854" stop-color="#964A06"/>
</linearGradient>
<linearGradient id="paint26_linear_35_4179" x1="-1.39207" y1="361.623" x2="-1.39207" y2="310.878" gradientUnits="userSpaceOnUse">
<stop stop-color="#C17019"/>
<stop offset="0.5073" stop-color="#FFF89F"/>
<stop offset="0.9854" stop-color="#964A06"/>
</linearGradient>
<linearGradient id="paint27_linear_35_4179" x1="-1.39023" y1="347.026" x2="-1.39023" y2="325.478" gradientUnits="userSpaceOnUse">
<stop stop-color="#C17019"/>
<stop offset="0.5073" stop-color="#FFF89F"/>
<stop offset="0.9854" stop-color="#964A06"/>
</linearGradient>
<linearGradient id="paint28_linear_35_4179" x1="-11.7561" y1="337.16" x2="-11.7561" y2="227.054" gradientUnits="userSpaceOnUse">
<stop stop-color="#C17019"/>
<stop offset="0.5073" stop-color="#FFF89F"/>
<stop offset="0.9854" stop-color="#964A06"/>
</linearGradient>
<linearGradient id="paint29_linear_35_4179" x1="-4.40978" y1="322.497" x2="-4.40977" y2="241.722" gradientUnits="userSpaceOnUse">
<stop stop-color="#C17019"/>
<stop offset="0.5073" stop-color="#FFF89F"/>
<stop offset="0.9854" stop-color="#964A06"/>
</linearGradient>
<linearGradient id="paint30_linear_35_4179" x1="-1.38875" y1="307.48" x2="-1.38875" y2="256.734" gradientUnits="userSpaceOnUse">
<stop stop-color="#C17019"/>
<stop offset="0.5073" stop-color="#FFF89F"/>
<stop offset="0.9854" stop-color="#964A06"/>
</linearGradient>
<linearGradient id="paint31_linear_35_4179" x1="-1.38721" y1="292.882" x2="-1.38721" y2="271.334" gradientUnits="userSpaceOnUse">
<stop stop-color="#C17019"/>
<stop offset="0.5073" stop-color="#FFF89F"/>
<stop offset="0.9854" stop-color="#964A06"/>
</linearGradient>
<linearGradient id="paint32_linear_35_4179" x1="-11.7591" y1="283.35" x2="-11.7591" y2="173.246" gradientUnits="userSpaceOnUse">
<stop stop-color="#C17019"/>
<stop offset="0.5073" stop-color="#FFF89F"/>
<stop offset="0.9854" stop-color="#964A06"/>
</linearGradient>
<linearGradient id="paint33_linear_35_4179" x1="-4.41283" y1="268.69" x2="-4.41283" y2="187.912" gradientUnits="userSpaceOnUse">
<stop stop-color="#C17019"/>
<stop offset="0.5073" stop-color="#FFF89F"/>
<stop offset="0.9854" stop-color="#964A06"/>
</linearGradient>
<linearGradient id="paint34_linear_35_4179" x1="-1.39207" y1="253.672" x2="-1.39207" y2="202.927" gradientUnits="userSpaceOnUse">
<stop stop-color="#C17019"/>
<stop offset="0.5073" stop-color="#FFF89F"/>
<stop offset="0.9854" stop-color="#964A06"/>
</linearGradient>
<linearGradient id="paint35_linear_35_4179" x1="-1.39023" y1="239.075" x2="-1.39023" y2="217.524" gradientUnits="userSpaceOnUse">
<stop stop-color="#C17019"/>
<stop offset="0.5073" stop-color="#FFF89F"/>
<stop offset="0.9854" stop-color="#964A06"/>
</linearGradient>
<linearGradient id="paint36_linear_35_4179" x1="-11.7561" y1="229.128" x2="-11.7561" y2="119.022" gradientUnits="userSpaceOnUse">
<stop stop-color="#C17019"/>
<stop offset="0.5073" stop-color="#FFF89F"/>
<stop offset="0.9854" stop-color="#964A06"/>
</linearGradient>
<linearGradient id="paint37_linear_35_4179" x1="-4.40978" y1="214.463" x2="-4.40978" y2="133.685" gradientUnits="userSpaceOnUse">
<stop stop-color="#C17019"/>
<stop offset="0.5073" stop-color="#FFF89F"/>
<stop offset="0.9854" stop-color="#964A06"/>
</linearGradient>
<linearGradient id="paint38_linear_35_4179" x1="-1.38573" y1="199.448" x2="-1.38572" y2="148.702" gradientUnits="userSpaceOnUse">
<stop stop-color="#C17019"/>
<stop offset="0.5073" stop-color="#FFF89F"/>
<stop offset="0.9854" stop-color="#964A06"/>
</linearGradient>
<linearGradient id="paint39_linear_35_4179" x1="-1.3858" y1="184.851" x2="-1.3858" y2="163.296" gradientUnits="userSpaceOnUse">
<stop stop-color="#C17019"/>
<stop offset="0.5073" stop-color="#FFF89F"/>
<stop offset="0.9854" stop-color="#964A06"/>
</linearGradient>
<linearGradient id="paint40_linear_35_4179" x1="-11.7591" y1="175.401" x2="-11.7591" y2="65.2953" gradientUnits="userSpaceOnUse">
<stop stop-color="#C17019"/>
<stop offset="0.5073" stop-color="#FFF89F"/>
<stop offset="0.9854" stop-color="#964A06"/>
</linearGradient>
<linearGradient id="paint41_linear_35_4179" x1="-4.41283" y1="160.736" x2="-4.41283" y2="79.958" gradientUnits="userSpaceOnUse">
<stop stop-color="#C17019"/>
<stop offset="0.5073" stop-color="#FFF89F"/>
<stop offset="0.9854" stop-color="#964A06"/>
</linearGradient>
<linearGradient id="paint42_linear_35_4179" x1="-1.39207" y1="145.721" x2="-1.39207" y2="94.9756" gradientUnits="userSpaceOnUse">
<stop stop-color="#C17019"/>
<stop offset="0.5073" stop-color="#FFF89F"/>
<stop offset="0.9854" stop-color="#964A06"/>
</linearGradient>
<linearGradient id="paint43_linear_35_4179" x1="-1.39023" y1="131.124" x2="-1.39023" y2="109.576" gradientUnits="userSpaceOnUse">
<stop stop-color="#C17019"/>
<stop offset="0.5073" stop-color="#FFF89F"/>
<stop offset="0.9854" stop-color="#964A06"/>
</linearGradient>
<linearGradient id="paint44_linear_35_4179" x1="-11.7561" y1="121.091" x2="-11.7561" y2="10.9845" gradientUnits="userSpaceOnUse">
<stop stop-color="#C17019"/>
<stop offset="0.5073" stop-color="#FFF89F"/>
<stop offset="0.9854" stop-color="#964A06"/>
</linearGradient>
<linearGradient id="paint45_linear_35_4179" x1="-4.40978" y1="106.428" x2="-4.40977" y2="25.6532" gradientUnits="userSpaceOnUse">
<stop stop-color="#C17019"/>
<stop offset="0.5073" stop-color="#FFF89F"/>
<stop offset="0.9854" stop-color="#964A06"/>
</linearGradient>
<linearGradient id="paint46_linear_35_4179" x1="-1.38573" y1="91.4104" x2="-1.38572" y2="40.6646" gradientUnits="userSpaceOnUse">
<stop stop-color="#C17019"/>
<stop offset="0.5073" stop-color="#FFF89F"/>
<stop offset="0.9854" stop-color="#964A06"/>
</linearGradient>
<linearGradient id="paint47_linear_35_4179" x1="-1.3858" y1="76.8133" x2="-1.3858" y2="55.2649" gradientUnits="userSpaceOnUse">
<stop stop-color="#C17019"/>
<stop offset="0.5073" stop-color="#FFF89F"/>
<stop offset="0.9854" stop-color="#964A06"/>
</linearGradient>
<linearGradient id="paint48_linear_35_4179" x1="-11.7591" y1="67.4476" x2="-11.7591" y2="-42.6608" gradientUnits="userSpaceOnUse">
<stop stop-color="#C17019"/>
<stop offset="0.5073" stop-color="#FFF89F"/>
<stop offset="0.9854" stop-color="#964A06"/>
</linearGradient>
<linearGradient id="paint49_linear_35_4179" x1="-4.41283" y1="52.7849" x2="-4.41283" y2="-27.9965" gradientUnits="userSpaceOnUse">
<stop stop-color="#C17019"/>
<stop offset="0.5073" stop-color="#FFF89F"/>
<stop offset="0.9854" stop-color="#964A06"/>
</linearGradient>
<linearGradient id="paint50_linear_35_4179" x1="26.7951" y1="52.7875" x2="26.7952" y2="-27.9977" gradientUnits="userSpaceOnUse">
<stop stop-color="#C17019"/>
<stop offset="0.5073" stop-color="#FFF89F"/>
<stop offset="0.9854" stop-color="#964A06"/>
</linearGradient>
<linearGradient id="paint51_linear_35_4179" x1="-1.39189" y1="37.7673" x2="-1.39189" y2="-12.9796" gradientUnits="userSpaceOnUse">
<stop stop-color="#C17019"/>
<stop offset="0.5073" stop-color="#FFF89F"/>
<stop offset="0.9854" stop-color="#964A06"/>
</linearGradient>
<linearGradient id="paint52_linear_35_4179" x1="-1.39023" y1="23.1702" x2="-1.39023" y2="1.61872" gradientUnits="userSpaceOnUse">
<stop stop-color="#C17019"/>
<stop offset="0.5073" stop-color="#FFF89F"/>
<stop offset="0.9854" stop-color="#964A06"/>
</linearGradient>
</defs>
</svg>
