<svg width="32" height="640" viewBox="0 0 32 640" fill="none" xmlns="http://www.w3.org/2000/svg">
<path d="M0.00024399 641.563L34.4234 607.205L72.2882 645L74.4462 645L34.4234 605.053L0.000243896 639.411L0.00024399 641.563Z" fill="url(#paint0_linear_35_4771)"/>
<path d="M9.09473 645L11.2528 645L34.4234 621.875L57.5924 645L59.7505 645L34.4234 619.72L9.09473 645Z" fill="url(#paint1_linear_35_4771)"/>
<path d="M24.1353 645L26.2948 645L34.4233 636.887L42.5518 645L44.7098 645L34.4233 634.733L24.1353 645Z" fill="url(#paint2_linear_35_4771)"/>
<path d="M0.00024335 626.912L18.1237 645L20.2818 645L0.000243256 624.757L0.00024335 626.912Z" fill="url(#paint3_linear_35_4771)"/>
<path d="M0.000241635 587.67L34.4234 553.313L87.4188 606.213L48.5575 645L50.7155 645L89.5769 606.213L34.4234 551.161L0.00024154 585.514L0.000241635 587.67Z" fill="url(#paint4_linear_35_4771)"/>
<path d="M0.000242276 602.335L34.4234 567.978L72.7262 606.213L34.4204 644.449L0.000242615 610.091L0.000242709 612.246L32.8164 645L36.0244 645L74.8843 606.213L34.4234 565.823L0.000242181 600.18L0.000242276 602.335Z" fill="url(#paint5_linear_35_4771)"/>
<path d="M59.8407 606.213L34.4205 631.586L9.00024 606.213L34.4205 580.84L59.8407 606.213ZM34.4205 629.431L57.6826 606.213L34.4205 582.995L11.1583 606.213L34.4205 629.431Z" fill="url(#paint6_linear_35_4771)"/>
<path d="M45.2166 606.216L34.4203 616.99L23.624 606.213L34.4203 595.437L45.2166 606.216ZM34.4203 614.833L43.0585 606.215L34.4203 597.589L25.7821 606.212L34.4203 614.833Z" fill="url(#paint7_linear_35_4771)"/>
<path d="M0.000240924 533.612L34.4234 499.258L87.4219 552.153L34.4234 605.053L0.000242545 570.696L0.000242639 572.852L34.4234 607.205L89.5799 552.153L34.4234 497.103L0.00024083 531.461L0.000240924 533.612Z" fill="url(#paint8_linear_35_4771)"/>
<path d="M0.000242206 548.278L34.4234 513.92L72.7293 552.153L34.4204 590.391L0.000242545 556.034L0.000242639 558.189L34.4204 592.543L74.8873 552.153L34.4234 511.768L0.000242112 546.123L0.000242206 548.278Z" fill="url(#paint9_linear_35_4771)"/>
<path d="M59.8437 552.156L34.4234 577.529L9.00171 552.156L34.4219 526.783L59.8437 552.156ZM34.4234 575.374L57.6856 552.156L34.4234 528.938L11.1613 552.156L34.4234 575.374Z" fill="url(#paint10_linear_35_4771)"/>
<path d="M45.2167 552.156L34.4235 562.932L23.6272 552.156L34.4204 541.379L45.2167 552.156ZM34.4235 560.779L43.0586 552.156L34.4204 543.536L25.7852 552.156L34.4235 560.779Z" fill="url(#paint11_linear_35_4771)"/>
<path d="M0.000240924 479.633L34.4204 445.278L87.4188 498.176L34.4204 551.077L0.000242545 516.725L0.000242639 518.877L34.4204 553.229L89.5769 498.176L34.4204 443.123L0.000240829 477.476L0.000240924 479.633Z" fill="url(#paint12_linear_35_4771)"/>
<path d="M0.000242206 494.298L34.4204 459.946L72.7262 498.176L34.4204 536.412L0.000242545 502.06L0.000242639 504.212L34.4204 538.567L74.8843 498.176L34.4204 457.791L0.000242112 492.146L0.000242206 494.298Z" fill="url(#paint13_linear_35_4771)"/>
<path d="M59.8407 498.176L34.4205 523.549L9.00024 498.179L34.4205 472.803L59.8407 498.176ZM34.4205 521.397L57.6826 498.176L34.4205 474.958L11.1583 498.179L34.4205 521.397Z" fill="url(#paint14_linear_35_4771)"/>
<path d="M45.2166 498.179L34.4203 508.952L23.624 498.176L34.4203 487.403L45.2166 498.179ZM34.4203 506.799L43.0585 498.179L34.4203 489.559L25.7821 498.176L34.4203 506.799Z" fill="url(#paint15_linear_35_4771)"/>
<path d="M0.000240924 425.661L34.4234 391.304L87.4219 444.202L34.4234 497.103L0.000242545 462.745L0.000242639 464.9L34.4234 499.258L89.5799 444.202L34.4234 389.148L0.000240829 423.506L0.000240924 425.661Z" fill="url(#paint16_linear_35_4771)"/>
<path d="M0.000242206 440.324L34.4234 405.97L72.7293 444.202L34.4204 482.436L0.000242545 448.083L0.000242639 450.238L34.4204 484.593L74.8873 444.202L34.4234 403.815L0.000242112 438.172L0.000242206 440.324Z" fill="url(#paint17_linear_35_4771)"/>
<path d="M59.8437 444.202L34.4234 469.575L9.00171 444.202L34.4219 418.832L59.8437 444.202ZM34.4234 467.423L57.6856 444.202L34.4234 420.984L11.1613 444.202L34.4234 467.423Z" fill="url(#paint18_linear_35_4771)"/>
<path d="M45.2167 444.205L34.4235 454.982L23.6272 444.202L34.4204 433.429L45.2167 444.205ZM34.4235 452.825L43.0586 444.205L34.4204 435.585L25.7852 444.202L34.4235 452.825Z" fill="url(#paint19_linear_35_4771)"/>
<path d="M0.000240923 371.597L34.4204 337.244L87.4188 390.145L34.4204 443.042L0.000242545 408.688L0.000242639 410.843L34.4204 445.197L89.5769 390.145L34.4204 335.09L0.000240829 369.442L0.000240923 371.597Z" fill="url(#paint20_linear_35_4771)"/>
<path d="M0.000242206 386.263L34.4204 351.909L72.7262 390.145L34.4173 428.379L0.000242545 394.026L0.000242639 396.181L34.4173 430.532L74.8843 390.145L34.4204 349.754L0.000242111 384.108L0.000242206 386.263Z" fill="url(#paint21_linear_35_4771)"/>
<path d="M59.8407 390.145L34.4205 415.517L9.00024 390.145L34.4205 364.772L59.8407 390.145ZM34.4205 413.363L57.6826 390.145L34.4205 366.924L11.1583 390.145L34.4205 413.363Z" fill="url(#paint22_linear_35_4771)"/>
<path d="M45.2135 390.148L34.4203 400.921L23.624 390.145L34.4172 379.368L45.2135 390.148ZM34.4203 398.765L43.0555 390.148L34.4172 381.522L25.7821 390.145L34.4203 398.765Z" fill="url(#paint23_linear_35_4771)"/>
<path d="M0.000240924 317.71L34.4234 283.349L87.4219 336.25L34.4234 389.148L0.000242545 354.795L0.000242639 356.95L34.4234 391.304L89.5799 336.25L34.4234 281.198L0.00024083 315.555L0.000240924 317.71Z" fill="url(#paint24_linear_35_4771)"/>
<path d="M0.000242206 332.375L34.4234 298.018L72.7293 336.25L34.4204 374.486L0.000242545 340.131L0.000242639 342.286L34.4204 376.638L74.8873 336.25L34.4234 295.863L0.000242112 330.22L0.000242206 332.375Z" fill="url(#paint25_linear_35_4771)"/>
<path d="M59.8438 336.25L34.4236 361.623L9.00342 336.253L34.4236 310.877L59.8438 336.25ZM34.4236 359.468L57.6858 336.25L34.4236 313.032L11.1614 336.253L34.4236 359.468Z" fill="url(#paint26_linear_35_4771)"/>
<path d="M45.2167 336.253L34.4235 347.027L23.6272 336.25L34.4204 325.477L45.2167 336.253ZM34.4235 344.872L43.0586 336.255L34.4204 327.632L25.7852 336.252L34.4235 344.872Z" fill="url(#paint27_linear_35_4771)"/>
<path d="M0.000240924 263.562L34.4204 229.208L87.4158 282.107L34.4173 335.008L0.000242545 300.656L0.000242639 302.811L34.4173 337.16L89.5738 282.107L34.4204 227.053L0.000240829 261.407L0.000240924 263.562Z" fill="url(#paint28_linear_35_4771)"/>
<path d="M0.000242206 278.229L34.4204 243.875L72.7232 282.107L34.4173 320.341L0.000242545 285.991L0.000242639 288.146L34.4173 322.498L74.8812 282.107L34.4204 241.723L0.000242112 276.077L0.000242206 278.229Z" fill="url(#paint29_linear_35_4771)"/>
<path d="M59.8407 282.107L34.4174 307.48L9.00024 282.11L34.4205 256.734L59.8407 282.107ZM34.4174 305.325L57.6826 282.107L34.4205 258.889L11.1583 282.11L34.4174 305.325Z" fill="url(#paint30_linear_35_4771)"/>
<path d="M45.2135 282.11L34.4203 292.884L23.624 282.107L34.4172 271.334L45.2135 282.11ZM34.4203 290.73L43.0555 282.11L34.4172 273.49L25.7821 282.107L34.4203 290.73Z" fill="url(#paint31_linear_35_4771)"/>
<path d="M0.000240924 209.758L34.4234 175.402L87.4219 228.3L34.4234 281.198L0.000242545 246.843L0.000242639 248.995L34.4234 283.349L89.5799 228.3L34.4234 173.246L0.00024083 207.603L0.000240924 209.758Z" fill="url(#paint32_linear_35_4771)"/>
<path d="M0.000242206 224.422L34.4234 190.067L72.7293 228.3L34.4204 266.535L0.000242545 232.178L0.000242639 234.333L34.4204 268.69L74.8873 228.3L34.4234 187.912L0.000242112 222.27L0.000242206 224.422Z" fill="url(#paint33_linear_35_4771)"/>
<path d="M59.8438 228.3L34.4236 253.673L9.00342 228.3L34.4236 202.927L59.8438 228.3ZM34.4236 251.521L57.6858 228.3L34.4236 205.082L11.1614 228.3L34.4236 251.521Z" fill="url(#paint34_linear_35_4771)"/>
<path d="M45.2167 228.3L34.4235 239.076L23.6272 228.3L34.4204 217.523L45.2167 228.3ZM34.4235 236.923L43.0586 228.3L34.4204 219.68L25.7852 228.3L34.4235 236.923Z" fill="url(#paint35_linear_35_4771)"/>
<path d="M0.000240923 155.528L34.4204 121.174L87.4158 174.074L34.4173 226.974L0.000242545 192.622L0.000242639 194.777L34.4173 229.129L89.5738 174.074L34.4204 119.022L0.000240829 153.373L0.000240923 155.528Z" fill="url(#paint36_linear_35_4771)"/>
<path d="M0.000242206 170.193L34.4204 135.84L72.7232 174.074L34.4173 212.307L0.000242545 177.955L0.000242639 180.112L34.4173 214.462L74.8812 174.074L34.4204 133.685L0.000242111 168.038L0.000242206 170.193Z" fill="url(#paint37_linear_35_4771)"/>
<path d="M59.8375 174.074L34.4173 199.447L8.99707 174.074L34.4173 148.701L59.8375 174.074ZM34.4173 197.292L57.6795 174.074L34.4173 150.853L11.1551 174.074L34.4173 197.292Z" fill="url(#paint38_linear_35_4771)"/>
<path d="M45.2136 174.077L34.4174 184.851L23.6211 174.074L34.4174 163.295L45.2136 174.077ZM34.4174 182.696L43.0556 174.079L34.4174 165.453L25.7791 174.076L34.4174 182.696Z" fill="url(#paint39_linear_35_4771)"/>
<path d="M0.000240924 101.805L34.4234 67.4471L87.4219 120.348L34.4234 173.246L0.000242545 138.89L0.000242639 141.045L34.4234 175.402L89.5799 120.348L34.4234 65.2952L0.000240829 99.6497L0.000240924 101.805Z" fill="url(#paint40_linear_35_4771)"/>
<path d="M0.000242206 116.47L34.4234 82.1138L72.7293 120.348L34.4204 158.58L0.000242545 124.226L0.000242639 126.381L34.4204 160.735L74.8873 120.348L34.4234 79.9573L0.000242112 114.315L0.000242206 116.47Z" fill="url(#paint41_linear_35_4771)"/>
<path d="M59.8438 120.348L34.4236 145.721L9.00342 120.348L34.4236 94.975L59.8438 120.348ZM34.4236 143.566L57.6858 120.348L34.4236 97.1269L11.1614 120.348L34.4236 143.566Z" fill="url(#paint42_linear_35_4771)"/>
<path d="M45.2167 120.351L34.4235 131.124L23.6272 120.348L34.4204 109.575L45.2167 120.351ZM34.4235 128.969L43.0586 120.352L34.4204 111.729L25.7852 120.349L34.4235 128.969Z" fill="url(#paint43_linear_35_4771)"/>
<path d="M0.000240923 47.4906L34.4173 13.1391L87.4158 66.0369L34.4173 118.939L0.000242545 84.5877L0.000242639 86.7427L34.4173 121.091L89.5738 66.0369L34.4173 10.9842L0.000240829 45.3356L0.000240923 47.4906Z" fill="url(#paint44_linear_35_4771)"/>
<path d="M0.000242205 62.1558L34.4173 27.8059L72.7232 66.0369L34.4173 104.273L0.000242545 69.9241L0.000242639 72.076L34.4173 106.427L74.8812 66.0369L34.4173 25.6524L0.000242111 60.0008L0.000242205 62.1558Z" fill="url(#paint45_linear_35_4771)"/>
<path d="M59.8375 66.0369L34.4173 91.4098L8.99707 66.04L34.4173 40.664L59.8375 66.0369ZM34.4173 89.2548L57.6795 66.0369L34.4173 42.819L11.1551 66.04L34.4173 89.2548Z" fill="url(#paint46_linear_35_4771)"/>
<path d="M45.2136 66.04L34.4174 76.8133L23.6211 66.0369L34.4174 55.2635L45.2136 66.04ZM34.4174 74.6614L43.0556 66.0415L34.4174 57.4216L25.7791 66.0384L34.4174 74.6614Z" fill="url(#paint47_linear_35_4771)"/>
<path d="M34.4234 65.2952L0.000242545 30.9376L0.000242639 33.0926L34.4234 67.4471L89.5799 12.3944L73.2253 -3.93126L71.0657 -3.93126L87.4219 12.3944L34.4234 65.2952Z" fill="url(#paint48_linear_35_4771)"/>
<path d="M34.4204 50.63L0.000242545 16.2725L0.000242639 18.4274L34.4204 52.785L74.8873 12.3944L58.5327 -3.93125L56.3746 -3.93125L72.7293 12.3944L34.4204 50.63Z" fill="url(#paint49_linear_35_4771)"/>
<path d="M0.000244141 8.51636L12.4723 -3.93125L10.3142 -3.93125L0.000244046 6.3614L0.000244141 8.51636Z" fill="url(#paint50_linear_35_4771)"/>
<path d="M41.3295 -3.93126L57.6856 12.3944L34.4234 35.6123L11.1613 12.3944L27.5159 -3.93126L25.3579 -3.93126L9.00171 12.3944L34.4234 37.7673L59.8437 12.3944L43.4875 -3.93126L41.3295 -3.93126Z" fill="url(#paint51_linear_35_4771)"/>
<path d="M45.2167 12.3944L34.4235 23.1708L23.6272 12.3944L34.4204 1.61948L45.2167 12.3944ZM34.4235 21.0174L43.0586 12.3944L34.4204 3.77449L25.7852 12.3944L34.4235 21.0174Z" fill="url(#paint52_linear_35_4771)"/>
<defs>
<linearGradient id="paint0_linear_35_4771" x1="37.2235" y1="715.155" x2="37.2235" y2="605.054" gradientUnits="userSpaceOnUse">
<stop stop-color="#C17019"/>
<stop offset="0.5073" stop-color="#FFF89F"/>
<stop offset="0.9854" stop-color="#964A06"/>
</linearGradient>
<linearGradient id="paint1_linear_35_4771" x1="34.4229" y1="700.494" x2="34.4229" y2="619.719" gradientUnits="userSpaceOnUse">
<stop stop-color="#C17019"/>
<stop offset="0.5073" stop-color="#FFF89F"/>
<stop offset="0.9854" stop-color="#964A06"/>
</linearGradient>
<linearGradient id="paint2_linear_35_4771" x1="34.4228" y1="685.472" x2="34.4228" y2="634.734" gradientUnits="userSpaceOnUse">
<stop stop-color="#C17019"/>
<stop offset="0.5073" stop-color="#FFF89F"/>
<stop offset="0.9854" stop-color="#964A06"/>
</linearGradient>
<linearGradient id="paint3_linear_35_4771" x1="10.141" y1="661.265" x2="10.141" y2="551.161" gradientUnits="userSpaceOnUse">
<stop stop-color="#C17019"/>
<stop offset="0.5073" stop-color="#FFF89F"/>
<stop offset="0.9854" stop-color="#964A06"/>
</linearGradient>
<linearGradient id="paint4_linear_35_4771" x1="44.7889" y1="661.265" x2="44.7889" y2="551.16" gradientUnits="userSpaceOnUse">
<stop stop-color="#C17019"/>
<stop offset="0.5073" stop-color="#FFF89F"/>
<stop offset="0.9854" stop-color="#964A06"/>
</linearGradient>
<linearGradient id="paint5_linear_35_4771" x1="37.4426" y1="646.601" x2="37.4426" y2="565.823" gradientUnits="userSpaceOnUse">
<stop stop-color="#C17019"/>
<stop offset="0.5073" stop-color="#FFF89F"/>
<stop offset="0.9854" stop-color="#964A06"/>
</linearGradient>
<linearGradient id="paint6_linear_35_4771" x1="34.42" y1="631.586" x2="34.42" y2="580.84" gradientUnits="userSpaceOnUse">
<stop stop-color="#C17019"/>
<stop offset="0.5073" stop-color="#FFF89F"/>
<stop offset="0.9854" stop-color="#964A06"/>
</linearGradient>
<linearGradient id="paint7_linear_35_4771" x1="34.4198" y1="616.989" x2="34.4198" y2="595.438" gradientUnits="userSpaceOnUse">
<stop stop-color="#C17019"/>
<stop offset="0.5073" stop-color="#FFF89F"/>
<stop offset="0.9854" stop-color="#964A06"/>
</linearGradient>
<linearGradient id="paint8_linear_35_4771" x1="44.7904" y1="607.206" x2="44.7904" y2="497.103" gradientUnits="userSpaceOnUse">
<stop stop-color="#C17019"/>
<stop offset="0.5073" stop-color="#FFF89F"/>
<stop offset="0.9854" stop-color="#964A06"/>
</linearGradient>
<linearGradient id="paint9_linear_35_4771" x1="37.4441" y1="592.543" x2="37.4441" y2="511.768" gradientUnits="userSpaceOnUse">
<stop stop-color="#C17019"/>
<stop offset="0.5073" stop-color="#FFF89F"/>
<stop offset="0.9854" stop-color="#964A06"/>
</linearGradient>
<linearGradient id="paint10_linear_35_4771" x1="34.4231" y1="577.529" x2="34.4231" y2="526.783" gradientUnits="userSpaceOnUse">
<stop stop-color="#C17019"/>
<stop offset="0.5073" stop-color="#FFF89F"/>
<stop offset="0.9854" stop-color="#964A06"/>
</linearGradient>
<linearGradient id="paint11_linear_35_4771" x1="34.4215" y1="562.931" x2="34.4215" y2="541.38" gradientUnits="userSpaceOnUse">
<stop stop-color="#C17019"/>
<stop offset="0.5073" stop-color="#FFF89F"/>
<stop offset="0.9854" stop-color="#964A06"/>
</linearGradient>
<linearGradient id="paint12_linear_35_4771" x1="44.7889" y1="553.229" x2="44.7889" y2="443.123" gradientUnits="userSpaceOnUse">
<stop stop-color="#C17019"/>
<stop offset="0.5073" stop-color="#FFF89F"/>
<stop offset="0.9854" stop-color="#964A06"/>
</linearGradient>
<linearGradient id="paint13_linear_35_4771" x1="37.4426" y1="538.566" x2="37.4426" y2="457.791" gradientUnits="userSpaceOnUse">
<stop stop-color="#C17019"/>
<stop offset="0.5073" stop-color="#FFF89F"/>
<stop offset="0.9854" stop-color="#964A06"/>
</linearGradient>
<linearGradient id="paint14_linear_35_4771" x1="34.42" y1="523.549" x2="34.42" y2="472.803" gradientUnits="userSpaceOnUse">
<stop stop-color="#C17019"/>
<stop offset="0.5073" stop-color="#FFF89F"/>
<stop offset="0.9854" stop-color="#964A06"/>
</linearGradient>
<linearGradient id="paint15_linear_35_4771" x1="34.4198" y1="508.951" x2="34.4198" y2="487.403" gradientUnits="userSpaceOnUse">
<stop stop-color="#C17019"/>
<stop offset="0.5073" stop-color="#FFF89F"/>
<stop offset="0.9854" stop-color="#964A06"/>
</linearGradient>
<linearGradient id="paint16_linear_35_4771" x1="44.7904" y1="499.258" x2="44.7904" y2="389.149" gradientUnits="userSpaceOnUse">
<stop stop-color="#C17019"/>
<stop offset="0.5073" stop-color="#FFF89F"/>
<stop offset="0.9854" stop-color="#964A06"/>
</linearGradient>
<linearGradient id="paint17_linear_35_4771" x1="37.4441" y1="484.592" x2="37.4441" y2="403.814" gradientUnits="userSpaceOnUse">
<stop stop-color="#C17019"/>
<stop offset="0.5073" stop-color="#FFF89F"/>
<stop offset="0.9854" stop-color="#964A06"/>
</linearGradient>
<linearGradient id="paint18_linear_35_4771" x1="34.4231" y1="469.574" x2="34.4231" y2="418.832" gradientUnits="userSpaceOnUse">
<stop stop-color="#C17019"/>
<stop offset="0.5073" stop-color="#FFF89F"/>
<stop offset="0.9854" stop-color="#964A06"/>
</linearGradient>
<linearGradient id="paint19_linear_35_4771" x1="34.4215" y1="454.98" x2="34.4215" y2="433.429" gradientUnits="userSpaceOnUse">
<stop stop-color="#C17019"/>
<stop offset="0.5073" stop-color="#FFF89F"/>
<stop offset="0.9854" stop-color="#964A06"/>
</linearGradient>
<linearGradient id="paint20_linear_35_4771" x1="44.7889" y1="445.197" x2="44.7889" y2="335.091" gradientUnits="userSpaceOnUse">
<stop stop-color="#C17019"/>
<stop offset="0.5073" stop-color="#FFF89F"/>
<stop offset="0.9854" stop-color="#964A06"/>
</linearGradient>
<linearGradient id="paint21_linear_35_4771" x1="37.4426" y1="430.532" x2="37.4426" y2="349.754" gradientUnits="userSpaceOnUse">
<stop stop-color="#C17019"/>
<stop offset="0.5073" stop-color="#FFF89F"/>
<stop offset="0.9854" stop-color="#964A06"/>
</linearGradient>
<linearGradient id="paint22_linear_35_4771" x1="34.42" y1="415.517" x2="34.42" y2="364.771" gradientUnits="userSpaceOnUse">
<stop stop-color="#C17019"/>
<stop offset="0.5073" stop-color="#FFF89F"/>
<stop offset="0.9854" stop-color="#964A06"/>
</linearGradient>
<linearGradient id="paint23_linear_35_4771" x1="34.4185" y1="400.92" x2="34.4185" y2="379.368" gradientUnits="userSpaceOnUse">
<stop stop-color="#C17019"/>
<stop offset="0.5073" stop-color="#FFF89F"/>
<stop offset="0.9854" stop-color="#964A06"/>
</linearGradient>
<linearGradient id="paint24_linear_35_4771" x1="44.7904" y1="391.304" x2="44.7904" y2="281.198" gradientUnits="userSpaceOnUse">
<stop stop-color="#C17019"/>
<stop offset="0.5073" stop-color="#FFF89F"/>
<stop offset="0.9854" stop-color="#964A06"/>
</linearGradient>
<linearGradient id="paint25_linear_35_4771" x1="37.4441" y1="376.638" x2="37.4441" y2="295.863" gradientUnits="userSpaceOnUse">
<stop stop-color="#C17019"/>
<stop offset="0.5073" stop-color="#FFF89F"/>
<stop offset="0.9854" stop-color="#964A06"/>
</linearGradient>
<linearGradient id="paint26_linear_35_4771" x1="34.4233" y1="361.623" x2="34.4233" y2="310.878" gradientUnits="userSpaceOnUse">
<stop stop-color="#C17019"/>
<stop offset="0.5073" stop-color="#FFF89F"/>
<stop offset="0.9854" stop-color="#964A06"/>
</linearGradient>
<linearGradient id="paint27_linear_35_4771" x1="34.4215" y1="347.026" x2="34.4215" y2="325.478" gradientUnits="userSpaceOnUse">
<stop stop-color="#C17019"/>
<stop offset="0.5073" stop-color="#FFF89F"/>
<stop offset="0.9854" stop-color="#964A06"/>
</linearGradient>
<linearGradient id="paint28_linear_35_4771" x1="44.7873" y1="337.16" x2="44.7873" y2="227.054" gradientUnits="userSpaceOnUse">
<stop stop-color="#C17019"/>
<stop offset="0.5073" stop-color="#FFF89F"/>
<stop offset="0.9854" stop-color="#964A06"/>
</linearGradient>
<linearGradient id="paint29_linear_35_4771" x1="37.441" y1="322.497" x2="37.441" y2="241.722" gradientUnits="userSpaceOnUse">
<stop stop-color="#C17019"/>
<stop offset="0.5073" stop-color="#FFF89F"/>
<stop offset="0.9854" stop-color="#964A06"/>
</linearGradient>
<linearGradient id="paint30_linear_35_4771" x1="34.42" y1="307.48" x2="34.42" y2="256.734" gradientUnits="userSpaceOnUse">
<stop stop-color="#C17019"/>
<stop offset="0.5073" stop-color="#FFF89F"/>
<stop offset="0.9854" stop-color="#964A06"/>
</linearGradient>
<linearGradient id="paint31_linear_35_4771" x1="34.4185" y1="292.882" x2="34.4185" y2="271.334" gradientUnits="userSpaceOnUse">
<stop stop-color="#C17019"/>
<stop offset="0.5073" stop-color="#FFF89F"/>
<stop offset="0.9854" stop-color="#964A06"/>
</linearGradient>
<linearGradient id="paint32_linear_35_4771" x1="44.7904" y1="283.35" x2="44.7904" y2="173.246" gradientUnits="userSpaceOnUse">
<stop stop-color="#C17019"/>
<stop offset="0.5073" stop-color="#FFF89F"/>
<stop offset="0.9854" stop-color="#964A06"/>
</linearGradient>
<linearGradient id="paint33_linear_35_4771" x1="37.4441" y1="268.69" x2="37.4441" y2="187.912" gradientUnits="userSpaceOnUse">
<stop stop-color="#C17019"/>
<stop offset="0.5073" stop-color="#FFF89F"/>
<stop offset="0.9854" stop-color="#964A06"/>
</linearGradient>
<linearGradient id="paint34_linear_35_4771" x1="34.4233" y1="253.672" x2="34.4233" y2="202.927" gradientUnits="userSpaceOnUse">
<stop stop-color="#C17019"/>
<stop offset="0.5073" stop-color="#FFF89F"/>
<stop offset="0.9854" stop-color="#964A06"/>
</linearGradient>
<linearGradient id="paint35_linear_35_4771" x1="34.4215" y1="239.075" x2="34.4215" y2="217.524" gradientUnits="userSpaceOnUse">
<stop stop-color="#C17019"/>
<stop offset="0.5073" stop-color="#FFF89F"/>
<stop offset="0.9854" stop-color="#964A06"/>
</linearGradient>
<linearGradient id="paint36_linear_35_4771" x1="44.7873" y1="229.128" x2="44.7873" y2="119.022" gradientUnits="userSpaceOnUse">
<stop stop-color="#C17019"/>
<stop offset="0.5073" stop-color="#FFF89F"/>
<stop offset="0.9854" stop-color="#964A06"/>
</linearGradient>
<linearGradient id="paint37_linear_35_4771" x1="37.441" y1="214.463" x2="37.441" y2="133.685" gradientUnits="userSpaceOnUse">
<stop stop-color="#C17019"/>
<stop offset="0.5073" stop-color="#FFF89F"/>
<stop offset="0.9854" stop-color="#964A06"/>
</linearGradient>
<linearGradient id="paint38_linear_35_4771" x1="34.417" y1="199.448" x2="34.417" y2="148.702" gradientUnits="userSpaceOnUse">
<stop stop-color="#C17019"/>
<stop offset="0.5073" stop-color="#FFF89F"/>
<stop offset="0.9854" stop-color="#964A06"/>
</linearGradient>
<linearGradient id="paint39_linear_35_4771" x1="34.4171" y1="184.851" x2="34.4171" y2="163.296" gradientUnits="userSpaceOnUse">
<stop stop-color="#C17019"/>
<stop offset="0.5073" stop-color="#FFF89F"/>
<stop offset="0.9854" stop-color="#964A06"/>
</linearGradient>
<linearGradient id="paint40_linear_35_4771" x1="44.7904" y1="175.401" x2="44.7904" y2="65.2953" gradientUnits="userSpaceOnUse">
<stop stop-color="#C17019"/>
<stop offset="0.5073" stop-color="#FFF89F"/>
<stop offset="0.9854" stop-color="#964A06"/>
</linearGradient>
<linearGradient id="paint41_linear_35_4771" x1="37.4441" y1="160.736" x2="37.4441" y2="79.958" gradientUnits="userSpaceOnUse">
<stop stop-color="#C17019"/>
<stop offset="0.5073" stop-color="#FFF89F"/>
<stop offset="0.9854" stop-color="#964A06"/>
</linearGradient>
<linearGradient id="paint42_linear_35_4771" x1="34.4233" y1="145.721" x2="34.4233" y2="94.9756" gradientUnits="userSpaceOnUse">
<stop stop-color="#C17019"/>
<stop offset="0.5073" stop-color="#FFF89F"/>
<stop offset="0.9854" stop-color="#964A06"/>
</linearGradient>
<linearGradient id="paint43_linear_35_4771" x1="34.4215" y1="131.124" x2="34.4215" y2="109.576" gradientUnits="userSpaceOnUse">
<stop stop-color="#C17019"/>
<stop offset="0.5073" stop-color="#FFF89F"/>
<stop offset="0.9854" stop-color="#964A06"/>
</linearGradient>
<linearGradient id="paint44_linear_35_4771" x1="44.7873" y1="121.091" x2="44.7873" y2="10.9845" gradientUnits="userSpaceOnUse">
<stop stop-color="#C17019"/>
<stop offset="0.5073" stop-color="#FFF89F"/>
<stop offset="0.9854" stop-color="#964A06"/>
</linearGradient>
<linearGradient id="paint45_linear_35_4771" x1="37.441" y1="106.428" x2="37.441" y2="25.6532" gradientUnits="userSpaceOnUse">
<stop stop-color="#C17019"/>
<stop offset="0.5073" stop-color="#FFF89F"/>
<stop offset="0.9854" stop-color="#964A06"/>
</linearGradient>
<linearGradient id="paint46_linear_35_4771" x1="34.417" y1="91.4104" x2="34.417" y2="40.6646" gradientUnits="userSpaceOnUse">
<stop stop-color="#C17019"/>
<stop offset="0.5073" stop-color="#FFF89F"/>
<stop offset="0.9854" stop-color="#964A06"/>
</linearGradient>
<linearGradient id="paint47_linear_35_4771" x1="34.4171" y1="76.8133" x2="34.4171" y2="55.2649" gradientUnits="userSpaceOnUse">
<stop stop-color="#C17019"/>
<stop offset="0.5073" stop-color="#FFF89F"/>
<stop offset="0.9854" stop-color="#964A06"/>
</linearGradient>
<linearGradient id="paint48_linear_35_4771" x1="44.7904" y1="67.4476" x2="44.7904" y2="-42.6608" gradientUnits="userSpaceOnUse">
<stop stop-color="#C17019"/>
<stop offset="0.5073" stop-color="#FFF89F"/>
<stop offset="0.9854" stop-color="#964A06"/>
</linearGradient>
<linearGradient id="paint49_linear_35_4771" x1="37.4441" y1="52.7849" x2="37.4441" y2="-27.9965" gradientUnits="userSpaceOnUse">
<stop stop-color="#C17019"/>
<stop offset="0.5073" stop-color="#FFF89F"/>
<stop offset="0.9854" stop-color="#964A06"/>
</linearGradient>
<linearGradient id="paint50_linear_35_4771" x1="6.2361" y1="52.7875" x2="6.2361" y2="-27.9977" gradientUnits="userSpaceOnUse">
<stop stop-color="#C17019"/>
<stop offset="0.5073" stop-color="#FFF89F"/>
<stop offset="0.9854" stop-color="#964A06"/>
</linearGradient>
<linearGradient id="paint51_linear_35_4771" x1="34.4231" y1="37.7673" x2="34.4231" y2="-12.9796" gradientUnits="userSpaceOnUse">
<stop stop-color="#C17019"/>
<stop offset="0.5073" stop-color="#FFF89F"/>
<stop offset="0.9854" stop-color="#964A06"/>
</linearGradient>
<linearGradient id="paint52_linear_35_4771" x1="34.4215" y1="23.1702" x2="34.4215" y2="1.61872" gradientUnits="userSpaceOnUse">
<stop stop-color="#C17019"/>
<stop offset="0.5073" stop-color="#FFF89F"/>
<stop offset="0.9854" stop-color="#964A06"/>
</linearGradient>
</defs>
</svg>
