<?xml version="1.0" encoding="UTF-8"?>
<svg version="1.1" xmlns="http://www.w3.org/2000/svg" width="1440" height="528">
<path d="M0 0 C475.2 0 950.4 0 1440 0 C1440 173.91 1440 347.82 1440 527 C1431 521 1431 521 1427.47265625 518.578125 C1418.67546625 512.54682468 1409.60021789 507.2404852 1400.20703125 502.19384766 C1398.14726225 501.07965845 1396.10362909 499.94084615 1394.0625 498.79296875 C1315.16471904 454.95098499 1218.22875634 442.92279369 1078.15582275 468.38415527 C1071.91044604 470.1682455 1065.70455648 472.08677145 1059.49380493 473.98706055 C963.97715278 503.20884186 864.39965496 516.6291308 765.01171875 523.90234375 C764.18646194 523.96321671 763.36120514 524.02408966 762.51094055 524.08680725 C716.92886761 527.33222154 671.37824225 528.33698231 625.69317859 528.25713807 C620.87696692 528.24959536 616.06083758 528.25232599 611.24462891 528.26074219 C576.78838903 528.3193078 542.41242873 527.8919916 508 526 C507.26640511 525.96006172 506.53281021 525.92012344 505.77698517 525.87897491 C497.03233304 525.39957721 488.29673898 524.82755014 479.5625 524.1875 C478.39715729 524.10385193 477.23181458 524.02020386 476.03115845 523.934021 C416.75427693 519.65625153 357.90297671 512.4611116 299.75 500.125 C214.56677958 482.07951377 127.5388571 472.71045505 40.4375 476.875 C39.60980103 476.91411499 38.78210205 476.95322998 37.92932129 476.99353027 C25.22979028 477.61170245 12.6738347 478.79296812 0 480 C0 321.6 0 163.2 0 0 Z " fill="#8B1F29" transform="translate(0,0)"/>
</svg>
